<svg xmlns="http://www.w3.org/2000/svg" viewBox="0 0 1000 1000"><g id="Слой_2" data-name="Слой 2"><path d="M656.09,518a107.82,107.82,0,0,0-21.35-36c-2.67-3-5.51-4.83-8.5-7.5-10.39-9.3-22.58-17.61-36-22.35a107.84,107.84,0,0,0-36-6.15h-72V662h72a107.65,107.65,0,0,0,72-27.5,106.52,106.52,0,0,0,8.5-8.5,108.14,108.14,0,0,0,21.35-108ZM518.24,626V482h36a71.74,71.74,0,0,1,36,9.63A72.48,72.48,0,0,1,616.61,518a72.1,72.1,0,0,1,0,72,72.48,72.48,0,0,1-26.37,26.37,71.74,71.74,0,0,1-36,9.63Z"/><path d="M517.76,365.5V410h-36V383.63a72.1,72.1,0,0,0-72,0A72.48,72.48,0,0,0,383.39,410a72.1,72.1,0,0,0,0,72,72.48,72.48,0,0,0,26.37,26.37,72.1,72.1,0,0,0,72,0V482h-36V446h72v80.5a107.91,107.91,0,0,1-144,0,106.52,106.52,0,0,1-8.5-8.5,107.91,107.91,0,0,1,0-144,106.52,106.52,0,0,1,8.5-8.5,107.91,107.91,0,0,1,144,0Z"/></g></svg>